# xmcd
#
# Track frame offsets:
#	150
#	12961
#	26951
#	39065
#	53824
#	67421
#	81487
#	93501
#	106113
#	119570
#	133195
#	146795
#	160454
#	175515
#	190625
#	206311
#	221275
#	235773
#	247286
#	262910
#
# Disc length: 3677
#
# Revision: 2
# Processed by: cddbd v1.5.1PL0 Copyright (c) Steve Scherf et al.
# Submitted via: audiograbber 1.80.04
# Normalized: r1:DSETVAR1
#
DISCID=1f0e5b14
DTITLE=Various Artist - The Vintage Blues Box [CD1)
DYEAR=1997
DGENRE=Blues
TTITLE0=Big Bill Broonzy - Rockin' Chair Blues
TTITLE1=Muddy Waters - I Be's Troubled
TTITLE2=Robert Johnson - Crossroads Blues
TTITLE3=Sonny Boy Williamson - Doggin' My Love Around
TTITLE4=Blind Lemon Jefferson - Black Snake Moan
TTITLE5=Tampa Red - Kingfish Blues
TTITLE6=Charley Patton - Revenue Man Blues
TTITLE7=Blind Boy Fuller - Sweet Honey Hole
TTITLE8=Son House - Walking Blues
TTITLE9=Bukka White - Shake 'Em On Down
TTITLE10=Leadbelly - The Gallis Pole
TTITLE11=Robert Johnson - Terraplane Blues
TTITLE12=Memphis Minnie - Bumble Bee
TTITLE13=Blind Lemon Jefferson - Long Distance Moan
TTITLE14=Sonny Boy Williamson - Beauty Parlor
TTITLE15=Tampa Red - You Gotta Reap What You Sow
TTITLE16=Big Joe Williams - Break 'Em On Down
TTITLE17=Leadbelly - Rock Island Line
TTITLE18=Son House - Shetland Pony Blues
TTITLE19=Robert Johnson - Kindhearted Woman Blues
EXTD=
EXTT0=
EXTT1=
EXTT2=
EXTT3=
EXTT4=
EXTT5=
EXTT6=
EXTT7=
EXTT8=
EXTT9=
EXTT10=
EXTT11=
EXTT12=
EXTT13=
EXTT14=
EXTT15=
EXTT16=
EXTT17=
EXTT18=
EXTT19=
PLAYORDER=
